<?xml version="1.0" encoding="UTF-8" standalone="no"?>
<!DOCTYPE svg PUBLIC "-//W3C//DTD SVG 1.1//EN" "http://www.w3.org/Graphics/SVG/1.1/DTD/svg11.dtd">
<svg width="100%" height="100%" viewBox="0 0 192 192" version="1.1" xmlns="http://www.w3.org/2000/svg" xmlns:xlink="http://www.w3.org/1999/xlink" xml:space="preserve" xmlns:serif="http://www.serif.com/" style="fill-rule:evenodd;clip-rule:evenodd;stroke-linejoin:round;stroke-miterlimit:2;">
    <g transform="matrix(1,0,0,1,-10172.9,-444.061)">
        <g transform="matrix(1.11891,0,0,0.945445,3595.36,-3708.77)">
            <g transform="matrix(0.89373,0,0,1.0577,4108.56,1394.51)">
                <g transform="matrix(6.31278,0,0,6.31278,-29784.3,-23399.4)">
                    <rect x="5031.81" y="4155.67" width="30.395" height="30.395" style="fill:rgb(14,86,103);"/>
                </g>
                <g transform="matrix(-4.2569e-17,-0.497279,0.497279,-4.2569e-17,-11054.2,6836.71)">
                    <path d="M7961.46,26404.8L7882.44,26378L7882.41,26378.2L7882.34,26377.9L7882.11,26377.9L7882.3,26377.8L7855.51,26298.8L7894.77,26289L7882.46,26377.8L7971.26,26365.5L7961.46,26404.8ZM7855.51,26298.8L7828.71,26377.8L7828.9,26377.9L7828.67,26377.9L7828.6,26378.2L7828.57,26378L7749.55,26404.8L7739.75,26365.5L7828.55,26377.8L7816.24,26289L7855.51,26298.8ZM7749.55,26404.8L7828.57,26431.6L7828.6,26431.4L7828.67,26431.6L7828.9,26431.7L7828.71,26431.7L7855.51,26510.7L7816.24,26520.5L7828.55,26431.7L7739.75,26444L7749.55,26404.8ZM7855.51,26510.7L7882.3,26431.7L7882.11,26431.7L7882.34,26431.6L7882.41,26431.4L7882.44,26431.6L7961.46,26404.8L7971.26,26444L7882.46,26431.7L7894.77,26520.5L7855.51,26510.7Z" style="fill:white;"/>
                </g>
            </g>
        </g>
    </g>
</svg>
